# xmcd CD database file
#
# Track frame offsets:
#	150
#	18007
#	54671
#	73553
#	91202
#	114042
#	131366
#	149518
#	173100
#	186782
#	199424
#
# Disc length: 2882 seconds
#
# Revision: 0
# Processed by: cddbd v1.5.2PL0 Copyright (c) Steve Scherf et al.
# Submitted via: CDex 1.75
#
DISCID=910b400b
DTITLE=Laughing Clowns - GB_Various
DYEAR=1900
DGENRE=Blues
TTITLE0=Holy Joe
TTITLE1=I Don't Know What I Want
TTITLE2=Eulogy?
TTITLE3=Theme From "Mad Flies, Mad Flies"
TTITLE4=Mr Uddich Smuddich Goes To Town
TTITLE5=Every Dog Has It's Day
TTITLE6=Sometimes (I Just Can't Live With Anyone)
TTITLE7=Eternally Yours
TTITLE8=Possessions
TTITLE9=Winter's Away
TTITLE10=The Flypaper
EXTD=
EXTT0=
EXTT1=
EXTT2=
EXTT3=
EXTT4=
EXTT5=
EXTT6=
EXTT7=
EXTT8=
EXTT9=
EXTT10=
PLAYORDER=
